<svg id="Layer_1" data-name="Layer 1" xmlns="http://www.w3.org/2000/svg" viewBox="0 0 431 524"><defs><style>.cls-1{fill:#553511;}.cls-2{fill:#da9244;}</style></defs><path class="cls-1" d="M158,184.24V295.85a6.05,6.05,0,0,0-1.25.66l-.16.09-.3.26-.25.22-2.57,2.28-10.42,9.23L129.59,320.5,108.73,339,63,379.48V184.24A11.24,11.24,0,0,1,74.24,173h72.52A11.24,11.24,0,0,1,158,184.24Z"/><path class="cls-1" d="M167,300.83h0V91.72A12.71,12.71,0,0,1,179.72,79h69.56A12.71,12.71,0,0,1,262,91.72V402.36l-13.13,21.38-11.39-17.11L206,359.42l-35.16-52.79Z"/><path class="cls-1" d="M366,184.24V233L299.1,341.94,271,387.7V184.24A11.24,11.24,0,0,1,282.24,173h72.52A11.24,11.24,0,0,1,366,184.24Z"/><path class="cls-1" d="M422,504.91v11.18a7.91,7.91,0,0,1-7.91,7.91H10.91A7.91,7.91,0,0,1,3,516.09V504.91A7.91,7.91,0,0,1,10.91,497H63V425.41l57.41-50.85,35.25-28.76,2.34,3.51V497h9.12a12.22,12.22,0,0,1-.12-1.72V362.82l10.43,15.66,31.45,47.21,15.72,23.6,14.9,22.36,3.93,5.9,1,1.48.25.36.12.19.06.09.44.67.6.52,1.7,1.48h2.26a6,6,0,0,0,4.64-2.19l.19-.21.26-.42.09-.14.45-.73,1.85-3L262,468v27.26a12.22,12.22,0,0,1-.12,1.72H271V453.37l57.38-93.45L366,298.65V497h48.09A7.91,7.91,0,0,1,422,504.91Z"/><path class="cls-2" d="M417.21,203.72c-.79,1.39-1.67,2.76-2.5,4.13l-10.4,16.94L366,287.18l-42.74,69.6L271,441.89l-9,14.66-2.37,3.86-7.42,12.09-1.85,3-.47.76s0,.07,0,.07h0l-.06-.09-.12-.18-.25-.37-1-1.48-3.93-5.9L229.6,446l-15.73-23.61-31.45-47.21L167,352l-9-13.51-2.2-3.3-28.25,25L63,417.39,44.11,434.12,16.32,458.75a1.91,1.91,0,0,1-1.46.55,18.42,18.42,0,0,1-2.79.21c-5.85,0-13.38-2.86-11.32-15.69A6,6,0,0,1,1.46,442l27.81-24.61L63,387.5l49.71-44L133.57,325,147,313.08l10.42-9.23.55-.49,2.05-1.81s.1-.11.14-.11h0l.84,1.26,1,1.45,3.85,5.79,1.13,1.7,34,51.1L232.49,410l15.72,23.61.86,1.28h0a0,0,0,0,0,0,0l12.91-21,9-14.66,33.21-54.08L366,244.47l21.65-35.25,5.22-8.5,2.26-3.67s0,0,0,0l-.31-1.26c-.38-1.53-.78-3.06-1.2-4.6-.84-3.06-1.72-6.13-2.67-9.18a298,298,0,0,0-13.73-35.84c-10.69-23.21-24.41-45-41.71-63.17a177.43,177.43,0,0,0-13.61-12.86A170.92,170.92,0,0,0,307,58.92c-2.63-1.63-5.19-3.37-7.91-4.84-1.35-.75-2.66-1.58-4-2.27L291,49.7a142.1,142.1,0,0,0-17.07-7.09c-2.89-1.07-5.88-1.87-8.84-2.74-1.47-.47-3-.75-4.49-1.13s-3-.76-4.52-1.05l-4.57-.85-2.28-.42-2.31-.31-4.61-.64c-1.54-.19-3.1-.28-4.65-.43q-7.51-.66-15.13-.65a193.69,193.69,0,0,0-22.4,1.33c-3.13.38-6.26.87-9.39,1.3s-6.24,1.15-9.36,1.71-6.21,1.39-9.32,2.08l-1.35.3c-.25,0-.49.13-.74.19L164,42.9c-4,1-7.9,2.31-11.84,3.5l-1.43.33c-.92.2-2.26.56-3.93,1-3.34.91-8.09,2-13.47,3.66l-4.18,1.19c-1.43.41-2.9.82-4.38,1.31l-9.12,2.83c-3.09,1-6.16,2-9.21,3l-4.51,1.44-4.33,1.46C88.06,66,81.78,68.11,77.88,68.85a16,16,0,0,1-2.91.34c-1.69,0-2.29-.56-2-1.57.42-1.45,2.68-3.82,6.18-6.74,1.76-1.44,3.78-3.08,6.11-4.69s4.88-3.3,7.58-5h-.07c-.27,0,2.59-1.87,7.28-4.43,2.46-1.36,5.38-3,8.58-4.71l10.24-5.17c3.55-1.71,7.17-3.33,10.56-4.91,1.68-.8,3.36-1.48,5-2.15l4.48-1.87,3.81-1.58,3-1.13,2.61-1c2.05-.62,4.1-1.28,6.16-1.88l6.25-1.68,3.12-.84c.52-.14,1-.29,1.56-.41L171.72,18a243.51,243.51,0,0,1,40.15-5.62q5.44-.28,10.92-.29a193.21,193.21,0,0,1,30,2.31,175.53,175.53,0,0,1,39.74,11.45L297.29,28l2.36,1.07L302,30.24l4.61,2.37,4.5,2.58,2.25,1.29,2.19,1.38c1.45.93,2.92,1.83,4.36,2.78,2.82,2,5.7,3.88,8.41,6a194.89,194.89,0,0,1,29.89,28.05c17.87,20.58,31.59,44.08,42.25,68.6A318.94,318.94,0,0,1,414,181c.92,3.23,1.8,6.47,2.62,9.78l.91,3.86,1,4.71C419.32,201,417.9,202.32,417.21,203.72Z"/></svg>